<svg xmlns="http://www.w3.org/2000/svg" width="1024" height="1024" viewBox="0 0 1024 1024">
  <defs>
    <linearGradient id="base" x1="192" y1="80" x2="816" y2="960" gradientUnits="userSpaceOnUse">
      <stop stop-color="#163D4A"/>
      <stop offset="0.55" stop-color="#0A2533"/>
      <stop offset="1" stop-color="#04111C"/>
    </linearGradient>
    <radialGradient id="light" cx="0" cy="0" r="1" gradientTransform="translate(300 128) rotate(55) scale(760 680)" gradientUnits="userSpaceOnUse">
      <stop stop-color="#6CB1AD" stop-opacity="0.24"/>
      <stop offset="1" stop-color="#6CB1AD" stop-opacity="0"/>
    </radialGradient>
    <linearGradient id="rim" x1="256" y1="56" x2="736" y2="968" gradientUnits="userSpaceOnUse">
      <stop stop-color="#9FC6C2" stop-opacity="0.5"/>
      <stop offset="0.5" stop-color="#558488" stop-opacity="0.12"/>
      <stop offset="1" stop-color="#9FC6C2" stop-opacity="0.2"/>
    </linearGradient>
    <linearGradient id="gold" x1="328" y1="276" x2="656" y2="772" gradientUnits="userSpaceOnUse">
      <stop stop-color="#FFF0C2"/>
      <stop offset="0.44" stop-color="#E8C77F"/>
      <stop offset="1" stop-color="#BC883D"/>
    </linearGradient>
    <linearGradient id="edge" x1="328" y1="280" x2="700" y2="760" gradientUnits="userSpaceOnUse">
      <stop stop-color="#FFF8DF" stop-opacity="0.9"/>
      <stop offset="1" stop-color="#FFF8DF" stop-opacity="0.05"/>
    </linearGradient>
    <path id="mark" d="M352 264 H454 V620 C454 652 470 668 502 668 H728 L664 780 H426 C360 780 324 744 324 678 V292 C324 276 336 264 352 264 Z"/>
  </defs>
  <rect x="40" y="40" width="944" height="944" rx="216" fill="url(#base)"/>
  <rect x="40" y="40" width="944" height="944" rx="216" fill="url(#light)"/>
  <rect x="44" y="44" width="936" height="936" rx="212" fill="none" stroke="url(#rim)" stroke-width="8"/>
  <use href="#mark" transform="translate(0 16)" fill="#020B12" opacity="0.45"/>
  <use href="#mark" fill="url(#gold)"/>
  <use href="#mark" fill="none" stroke="url(#edge)" stroke-width="4"/>
</svg>
